# xmcd CD database file
#
# Track frame offsets:
#	150
#	16717
#	32845
#	55135
#	74062
#	89457
#	101922
#	115587
#	126977
#	135942
#	149480
#	159387
#	169130
#	177212
#	191322
#	196892
#	215342
#	227245
#	241487
#	255397
#	265860
#	275135
#	286275
#
# Disc length: 4006 seconds
#
# Revision: 0
# Processed by: cddbd v1.5.1PL0 Copyright (c) Steve Scherf et al.
# Submitted via: CDex 1.51
#
DISCID=510fa417
DTITLE=Judy Garland - A Jazz Compilation(2)
DYEAR=1996
DGENRE=Jazz
TTITLE0=Fly Me To The Moon
TTITLE1=The Boy Next Door
TTITLE2=Stomy Weather
TTITLE3=The man that got away
TTITLE4=When the sun comes out
TTITLE5=Smile
TTITLE6=I'm always chasing rainbows
TTITLE7=How about me
TTITLE8=I feel a song comin' on
TTITLE9=That's al
TTITLE10=That's entertainment
TTITLE11=For me and my girl-Trolley song
TTITLE12=Swanee
TTITLE13=I'm nobody's baby
TTITLE14=Alexander's ragtime band
TTITLE15=Battle hymn of the republic
TTITLE16=Rock-a-byeyour baby with a dixie melody
TTITLE17=Almost like being in love-this can't be love
TTITLE18=Love of my life
TTITLE19=Chicago
TTITLE20=Make someone happy
TTITLE21=A foggy day(in London town)
TTITLE22=Over the Rainbow
EXTD=YEAR: 1996
EXTT0=
EXTT1=
EXTT2=
EXTT3=
EXTT4=
EXTT5=
EXTT6=
EXTT7=
EXTT8=
EXTT9=
EXTT10=
EXTT11=
EXTT12=
EXTT13=
EXTT14=
EXTT15=
EXTT16=
EXTT17=
EXTT18=
EXTT19=
EXTT20=
EXTT21=
EXTT22=
PLAYORDER=
